HIERARCHY
ROOT root     
{
	OFFSET 0.0000 0.0000 0.0000
	CHANNELS 6 Xposition Yposition Zposition Zrotation Yrotation Xrotation
	JOINT pelvis   
	{
		OFFSET 0.0000 0.0000 0.0000
		CHANNELS 3 Zrotation Yrotation Xrotation
		JOINT thorax   
		{
			OFFSET 0.0000 23.0750 -5.0000
			CHANNELS 3 Zrotation Yrotation Xrotation
			JOINT rclavicle
			{
				OFFSET 0.0000 28.0009 0.0000
				CHANNELS 3 Zrotation Yrotation Xrotation
				JOINT rhumerus 
				{
					OFFSET -18.5725 5.5939 0.0000
					CHANNELS 3 Zrotation Yrotation Xrotation
					JOINT rradius  
					{
						OFFSET -24.8459 0.0000 0.0000
						CHANNELS 3 Zrotation Yrotation Xrotation
						JOINT rhand    
						{
							OFFSET -24.5477 0.0000 0.0000
							CHANNELS 3 Zrotation Yrotation Xrotation
							End Site
							{
								OFFSET -8.1826 0.0000 0.0000
							}
						}
					}
				}
			}
			JOINT lclavicle
			{
				OFFSET 0.0000 28.0009 0.0000
				CHANNELS 3 Zrotation Yrotation Xrotation
				JOINT lhumerus 
				{
					OFFSET 18.5725 5.5939 0.0000
					CHANNELS 3 Zrotation Yrotation Xrotation
					JOINT lradius  
					{
						OFFSET 24.8459 0.0000 0.0000
						CHANNELS 3 Zrotation Yrotation Xrotation
						JOINT lhand    
						{
							OFFSET 24.5477 0.0000 0.0000
							CHANNELS 3 Zrotation Yrotation Xrotation
							End Site
							{
								OFFSET 8.1826 0.0000 0.0000
							}
						}
					}
				}
			}
			JOINT head     
			{
				OFFSET 0.0000 35.2030 0.0000
				CHANNELS 3 Zrotation Yrotation Xrotation
				End Site
				{
					OFFSET 0.0000 11.7343 0.0000
				}
			}
		}
		JOINT rfemur   
		{
			OFFSET -8.2817 0.0000 0.0000
			CHANNELS 3 Zrotation Yrotation Xrotation
			JOINT rtibia   
			{
				OFFSET 0.0000 -43.3627 0.0000
				CHANNELS 3 Zrotation Yrotation Xrotation
				JOINT rfoot    
				{
					OFFSET 0.0000 -38.2947 0.0000
					CHANNELS 3 Zrotation Yrotation Xrotation
					JOINT rtoes    
					{
						OFFSET 0.0000 0.0000 16.6054
						CHANNELS 3 Zrotation Yrotation Xrotation
						End Site
						{
							OFFSET 0.0000 0.0000 5.5351
						}
					}
				}
			}
		}
		JOINT lfemur   
		{
			OFFSET 8.2817 0.0000 0.0000
			CHANNELS 3 Zrotation Yrotation Xrotation
			JOINT ltibia   
			{
				OFFSET 0.0000 -43.3627 0.0000
				CHANNELS 3 Zrotation Yrotation Xrotation
				JOINT lfoot    
				{
					OFFSET 0.0000 -38.2947 0.0000
					CHANNELS 3 Zrotation Yrotation Xrotation
					JOINT ltoes    
					{
						OFFSET 0.0000 0.0000 16.6054
						CHANNELS 3 Zrotation Yrotation Xrotation
						End Site
						{
							OFFSET 0.0000 0.0000 5.5351
						}
					}
				}
			}
		}
	}
}
MOTION
Frames: 23
Frame Time: .0333333
24.81 79.693 7.1469 122.468 -82.061 -87.8375 0 -0 0 11.8231 -2.28865 23.5267 11.4867 -8.50595 -1.28611e-06 51.8274 -9.65059 -1.57961 -180 79.153 -180 -8.13925 1.85316 -0.131896 -10.944 15.7188 3.69086e-05 -50.7985 21.7971 23.6213 -1.8672e-06 -78.23 2.29636e-06 -10.5577 6.56453 -0.607202 -0.816605 -0.0414026 -11.908 10.8931 -19.5388 -63.8735 -0 -0 60.8759 -2.32831e-06 7.51082 -11.0337 -1.44547 -3.86403e-06 -35.3659 -11.6433 6.8042 -54.3311 -0 -0 69.1164 0.000119488 20.1593 -14.8473 -5.37422 7.69368e-07 -7.1233 
24.099 79.9 7.0377 121.897 -82.0191 -87.1959 0 -0 0 11.5768 -1.85396 23.6292 11.2081 -8.34965 -4.58759e-06 51.3238 -9.46434 -1.57807 180 79.1451 180 -8.06592 1.81414 -0.127903 -10.9488 15.8108 -3.17834e-05 -50.4762 22.0885 23.848 -9.75501e-07 -78.6836 1.19e-06 -10.6596 6.36865 -0.594804 -0.975091 -0.134402 -11.9625 10.7603 -19.8156 -63.2302 -0 -0 60.4943 1.04688e-06 7.76793 -10.9663 -1.48652 4.98107e-06 -36.1969 -11.6376 6.16876 -55.8355 -0 -0 68.4875 -7.14541e-05 19.8133 -14.7981 -5.25744 1.2408e-06 -7.67092 
23.366 80.091 6.9281 121.405 -81.994 -86.6615 0 -0 0 11.3232 -1.43867 23.7232 10.9264 -8.20016 4.67616e-06 50.829 -9.2708 -1.56357 180 79.1522 180 -8.01865 1.75487 -0.122994 -10.9633 15.9131 1.88273e-07 -50.1543 22.4058 24.066 1.23513e-06 -79.1371 -1.0207e-06 -10.7763 6.15235 -0.580803 -1.1374 -0.216594 -12.0413 10.6214 -20.0872 -62.5419 -0 -0 60.1204 3.44203e-06 8.01902 -10.9309 -1.53029 -3.71277e-07 -36.9423 -11.653 5.60493 -57.2798 -0 -0 67.7533 -0.000100886 19.5494 -14.7501 -5.16572 7.2996e-06 -7.92645 
22.613 80.267 6.8176 121.009 -81.9725 -86.2488 0 -0 0 11.0598 -1.04111 23.8069 10.6402 -8.05883 -7.31954e-06 50.3472 -9.06995 -1.53113 180 79.1816 180 -7.99994 1.67828 -0.117397 -10.983 16.0298 -2.78857e-05 -49.8338 22.7474 24.2766 -5.67938e-07 -79.5865 1.15347e-06 -10.9075 5.92232 -0.56589 -1.30245 -0.289393 -12.1407 10.4703 -20.3461 -61.8095 -0 -0 59.756 1.29244e-05 8.25697 -10.9108 -1.57341 -6.39364e-06 -37.7449 -11.6987 5.11408 -58.6636 -0 -0 66.9203 1.09107e-05 19.3582 -14.6932 -5.09246 -4.28435e-06 -8.10991 
21.839 80.427 6.7066 120.701 -81.9606 -85.9486 0 -0 0 10.785 -0.65978 23.8752 10.3505 -7.9272 -5.00509e-07 49.8846 -8.86054 -1.47717 -180 79.2191 -180 -8.00742 1.58784 -0.111105 -11.0051 16.159 -1.28767e-05 -49.5168 23.1114 24.4833 0 -80.0101 0 -11.0519 5.68597 -0.550496 -1.46897 -0.354695 -12.2536 10.2997 -20.5838 -61.0358 -0 -0 59.4076 -7.52351e-06 8.47847 -10.8973 -1.61423 -1.45825e-05 -38.6158 -11.7832 4.69554 -59.9883 -0 -0 65.9918 -3.76797e-06 19.2175 -14.63 -5.03147 -2.0277e-06 -8.15469 
21.044 80.571 6.5948 120.487 -81.9549 -85.765 0 -0 0 10.5019 -0.293152 23.9237 10.0639 -7.80497 -3.73401e-06 49.4358 -8.64485 -1.40231 180 79.2664 180 -8.03493 1.48207 -0.104098 -11.0315 16.3002 4.04895e-05 -49.2095 23.5 24.681 0 -80.4103 0 -11.2099 5.44497 -0.534789 -1.63653 -0.4141 -12.3748 10.1053 -20.7933 -60.2223 -0 -0 59.0783 1.42559e-06 8.68411 -10.8901 -1.65295 -1.46975e-05 -39.4917 -11.9115 4.34816 -61.2576 -0 -0 64.9727 -0.000105903 19.0955 -14.5712 -4.9776 -3.41242e-06 -7.97176 
20.229 80.698 6.4829 120.357 -81.9633 -85.6818 0 -0 0 10.2067 0.0611915 23.9494 9.77952 -7.69448 4.81254e-06 49.0038 -8.42429 -1.30395 -180 79.3273 -180 -8.07751 1.37161 -0.0967989 -11.056 16.4541 2.15415e-05 -48.9091 23.9067 24.8776 -6.80072e-07 -80.7834 1.26512e-06 -11.3743 5.20891 -0.5191 -1.80043 -0.471892 -12.5014 9.88087 -20.9694 -59.3756 -0 -0 58.773 8.967e-06 8.87312 -10.874 -1.68689 3.45562e-06 -40.4858 -12.0886 4.06506 -62.4714 -0 -0 63.8653 -7.62888e-05 18.9554 -14.4841 -4.90953 -3.61651e-07 -7.78297 
19.392 80.809 6.371 120.306 -81.9795 -85.695 0 -0 0 9.90057 0.404934 23.9486 9.5031 -7.59557 -9.50427e-06 48.5897 -8.20194 -1.1846 -180 79.394 -180 -8.12836 1.25977 -0.0894955 -11.0784 16.6183 -5.96503e-05 -48.6218 24.3308 25.0719 -7.16425e-07 -81.1191 1.3013e-06 -11.5402 4.98183 -0.50371 -1.95857 -0.531294 -12.6292 9.62309 -21.1097 -58.4949 -0 -0 58.4925 4.40215e-06 9.049 -10.8492 -1.71699 1.43338e-05 -41.564 -12.3168 3.84123 -63.6304 -0 -0 62.6701 -8.24522e-05 18.763 -14.3571 -4.81474 4.72644e-06 -7.61132 
18.535 80.903 6.2594 120.332 -82.002 -85.8006 0 -0 0 9.58417 0.73903 23.9231 9.23767 -7.50876 -2.27042e-06 48.1867 -7.98149 -1.04522 -180 79.4528 -180 -8.18194 1.15113 -0.0823029 -11.0968 16.7909 3.59956e-05 -48.3485 24.7694 25.2668 -2.6347e-06 -81.407 3.06279e-06 -11.7001 4.76811 -0.48879 -2.10717 -0.595697 -12.7568 9.33047 -21.2134 -57.5833 -0 -0 58.2384 -2.43093e-07 9.21582 -10.8163 -1.74399 1.18213e-06 -42.7234 -12.5968 3.67 -64.7272 -0 -0 61.3868 1.75926e-05 18.4878 -14.1748 -4.6807 3.74554e-06 -7.5475 
17.655 80.981 6.1484 120.417 -82.0255 -85.9862 0 -0 0 9.25862 1.06441 23.8739 8.98877 -7.43378 -6.95683e-08 47.7941 -7.76682 -0.888644 180 79.4965 180 -8.23346 1.04951 -0.0754999 -11.1113 16.9703 1.35023e-06 -48.0899 25.2208 25.4638 -1.92133e-06 -81.6487 2.22399e-06 -11.8466 4.57333 -0.474775 -2.24313 -0.668106 -12.883 9.0015 -21.282 -56.6346 -0 -0 58.0088 -5.16244e-06 9.37872 -10.7831 -1.76991 6.26816e-06 -43.899 -12.9296 3.54516 -65.7537 -0 -0 60.0085 -6.08193e-05 18.1122 -13.9275 -4.50112 4.53611e-06 -7.62479 
16.75 81.042 6.038 120.54 -82.0631 -86.2311 0 -0 0 8.92508 1.38097 23.8076 8.76039 -7.37021 -1.41762e-06 47.4071 -7.56168 -0.716637 -180 79.5167 -180 -8.27988 0.957007 -0.069299 -11.1209 17.1543 -1.06352e-05 -47.849 25.6835 25.6637 -1.97019e-06 -81.8407 2.27281e-06 -11.9728 4.39954 -0.461589 -2.36342 -0.750788 -13.0045 8.63825 -21.3206 -55.6444 -0 -0 57.7966 8.327e-06 9.54048 -10.7566 -1.79669 1.63061e-05 -45.0905 -13.315 3.46085 -66.6983 -0 -0 58.5322 -8.70611e-05 17.627 -13.6076 -4.27492 5.66243e-06 -7.94082 
15.818 81.086 5.9283 120.693 -82.0976 -86.5327 0 -0 0 8.58326 1.68889 23.7265 8.55514 -7.3184 -5.71082e-06 47.022 -7.36867 -0.529388 180 79.5103 180 -8.32053 0.876205 -0.0636993 -11.1247 17.3396 0.000103766 -47.6233 26.1553 25.8693 0 -81.9795 0 -12.0703 4.25146 -0.449718 -2.46496 -0.845019 -13.1246 8.24217 -21.3341 -54.6034 -0 -0 57.5988 7.37425e-06 9.70197 -10.7456 -1.82575 4.80368e-06 -46.2869 -13.7534 3.41132 -67.5464 -0 -0 56.951 7.45964e-05 17.0351 -13.2108 -4.00573 4.03213e-06 -8.58928 
14.857 81.114 5.8188 120.86 -82.1505 -86.8785 0 -0 0 8.23808 1.98841 23.6389 8.3787 -7.27626 5.68155e-06 46.6344 -7.19338 -0.330197 -180 79.4731 -180 -8.35427 0.8041 -0.0586997 -11.1236 17.5249 -5.72787e-05 -47.4209 26.635 26.0766 0 -82.0683 0 -12.1346 4.12795 -0.438992 -2.54767 -0.952091 -13.2373 7.81888 -21.3296 -53.4984 -0 -0 57.4018 -6.2562e-06 9.86478 -10.7675 -1.86069 5.9449e-06 -47.3753 -14.2425 3.39354 -68.283 -0 -0 55.2557 7.54251e-05 16.3538 -12.7539 -3.70663 6.37186e-06 -9.4941 
13.863 81.124 5.709 121.043 -82.1974 -87.2816 0 -0 0 7.89032 2.27968 23.5497 8.23166 -7.24484 -3.37182e-07 46.244 -7.03703 -0.117445 180 79.3972 180 -8.38155 0.740608 -0.0542991 -11.1171 17.7076 -6.47388e-05 -47.2395 27.1211 26.2891 0 -82.0947 0 -12.1636 4.03171 -0.429709 -2.61021 -1.07139 -13.3439 7.37427 -21.312 -52.3215 -0 -0 57.1959 -2.28968e-06 10.0244 -10.8272 -1.90182 -2.79739e-05 -48.377 -14.7815 3.40533 -68.8938 -0 -0 53.4431 -0.000116929 15.6068 -12.2382 -3.3884 5.08672e-06 -10.7442 
12.834 81.116 5.5985 121.232 -82.2551 -87.7309 0 -0 0 7.54196 2.56354 23.464 8.11483 -7.22333 2.66041e-06 45.8481 -6.90213 0.11043 180 79.2943 180 -8.40319 0.684191 -0.0503004 -11.1049 17.8891 -6.89559e-05 -47.0791 27.6139 26.5067 -2.87279e-06 -82.0708 3.3007e-06 -12.1547 3.96334 -0.422121 -2.65364 -1.2017 -13.4422 6.91433 -21.2867 -51.0604 -0 -0 56.9704 -1.58988e-05 10.1752 -10.9294 -1.94896 1.14727e-05 -49.29 -15.3684 3.44642 -69.3694 -0 -0 51.5072 3.63484e-05 14.82 -11.6728 -3.06417 -7.87015e-07 -12.3296 
11.767 81.091 5.4863 121.421 -82.3305 -88.2231 0 -0 0 7.19731 2.84214 23.3832 8.02741 -7.21178 3.08402e-07 45.4489 -6.79079 0.354578 -180 79.1489 -180 -8.41812 0.631999 -0.0464992 -11.0861 18.0685 -7.02929e-05 -46.9443 28.1117 26.7278 0 -81.9906 0 -12.1116 3.91993 -0.416025 -2.68021 -1.34201 -13.5288 6.44863 -21.2586 -49.7083 -0 -0 56.7106 1.58028e-06 10.3116 -11.0744 -2.00159 1.38248e-05 -50.1057 -15.9985 3.51827 -69.7007 -0 -0 49.4492 1.00681e-05 14.0288 -11.0672 -2.74594 1.65665e-05 -14.2351 
10.664 81.047 5.3715 121.644 -82.4114 -88.7912 0 -0 0 6.8551 3.11701 23.304 7.96483 -7.21498 9.75098e-07 45.0533 -6.69843 0.624728 -180 78.9738 -180 -8.42719 0.585399 -0.0431008 -11.0623 18.2512 9.50436e-06 -46.8263 28.6121 26.9609 1.61196e-06 -81.8651 -1.39797e-06 -12.0306 3.90711 -0.4119 -2.69021 -1.48873 -13.6007 5.98347 -21.2244 -48.2654 -0 -0 56.4124 -1.31216e-06 10.4226 -11.2569 -2.05654 -2.00987e-05 -50.8614 -16.6709 3.62305 -69.8968 -0 -0 47.2732 4.61742e-06 13.2623 -10.4159 -2.44003 -6.02522e-06 -16.4847 
9.5227 80.987 5.2535 121.912 -82.5022 -89.444 0 -0 0 6.52286 3.39093 23.2265 7.92499 -7.22984 2.06074e-06 44.663 -6.63052 0.919174 -180 78.7779 -180 -8.42693 0.540306 -0.0397998 -11.0319 18.435 -3.44344e-05 -46.7337 29.1162 27.199 -7.86836e-07 -81.6954 1.37153e-06 -11.9243 3.9171 -0.409207 -2.68948 -1.64085 -13.6526 5.52896 -21.1871 -46.73 -0 -0 56.0625 -5.74949e-06 10.5055 -11.4673 -2.11125 1.2839e-05 -51.5679 -17.3808 3.76617 -69.9609 -0 -0 44.9882 4.45333e-05 12.5504 -9.73585 -2.15598 9.16503e-06 -18.9037 
8.3437 80.91 5.1315 122.247 -82.6149 -90.1986 0 -0 0 6.2026 3.66692 23.1457 7.90103 -7.25841 -8.47746e-06 44.2855 -6.58595 1.24277 180 78.5568 180 -8.41515 0.497304 -0.0365993 -10.9942 18.6244 6.41389e-06 -46.6663 29.6216 27.4432 1.54458e-06 -81.4844 -1.33055e-06 -11.7979 3.94764 -0.40799 -2.68176 -1.79633 -13.6842 5.09182 -21.1441 -45.1066 -0 -0 55.657 2.23022e-05 10.5562 -11.6917 -2.16264 2.25539e-05 -52.257 -18.1195 3.94961 -69.9051 -0 -0 42.6117 -2.64978e-05 11.9163 -9.02972 -1.89695 -1.79125e-05 -21.3801 
7.1315 80.817 5.0046 122.686 -82.7479 -91.0736 0 -0 0 5.89254 3.94705 23.0419 7.88826 -7.30622 2.80338e-06 43.928 -6.55861 1.60693 180 78.3188 180 -8.39003 0.458098 -0.0336009 -10.9517 18.8233 1.65447e-05 -46.6124 30.1305 27.6989 -1.29135e-06 -81.2466 1.50541e-06 -11.652 4.00336 -0.408609 -2.66767 -1.95204 -13.6903 4.67946 -21.0848 -43.4167 -0 -0 55.1962 -5.16052e-05 10.5668 -11.9152 -2.20549 6.18794e-07 -52.9668 -18.8864 4.17458 -69.7613 -0 -0 40.1611 -1.49261e-06 11.3692 -8.29324 -1.66136 -8.50854e-06 -23.7964 
5.8872 80.708 4.8729 123.26 -82.8965 -92.0989 0 -0 0 5.59863 4.23288 22.921 7.87922 -7.36971 -5.82583e-06 43.5955 -6.55316 2.00831 180 78.0741 180 -8.34665 0.422398 -0.0308001 -10.9022 19.035 5.16677e-05 -46.5806 30.64 27.9602 -1.76833e-06 -80.9782 2.07114e-06 -11.4984 4.07466 -0.410389 -2.65299 -2.10766 -13.672 4.29545 -21.008 -41.6648 -0 -0 54.679 5.52017e-05 10.5434 -12.1183 -2.2377 -1.03482e-05 -53.7187 -19.6685 4.44304 -69.5452 -0 -0 37.6653 9.43671e-07 10.9173 -7.53954 -1.44985 -8.71171e-06 -25.9846 
4.6151 80.586 4.7361 124.023 -83.0674 -93.3133 0 -0 0 5.31987 4.52574 22.7657 7.86854 -7.45065 2.49158e-06 43.2983 -6.56666 2.45166 -180 77.8193 -180 -8.283 0.392297 -0.0284003 -10.8474 19.2604 -5.23181e-06 -46.5696 31.149 28.2255 2.01328e-06 -80.701 -1.71043e-06 -11.3414 4.16057 -0.413301 -2.63939 -2.26164 -13.6312 3.94367 -20.9057 -39.871 -0 -0 54.1052 -1.75904e-05 10.487 -12.2905 -2.25641 -1.0217e-06 -54.5314 -20.4568 4.7535 -69.283 -0 -0 35.1508 6.00079e-06 10.5555 -6.77044 -1.25847 6.48382e-06 -27.8677 
3.3194 80.452 4.5942 125.015 -83.2531 -94.7466 0 -0 0 5.05602 4.82555 22.5731 7.8525 -7.54851 -3.80023e-06 43.0374 -6.59855 2.93813 -180 77.5596 -180 -8.19669 0.369906 -0.0265003 -10.7877 19.5036 -6.14391e-06 -46.5781 31.658 28.4907 -2.34066e-06 -80.4155 2.76905e-06 -11.1844 4.2571 -0.417001 -2.62829 -2.41337 -13.5703 3.62492 -20.7688 -38.053 -0 -0 53.4821 -2.88328e-05 10.4019 -12.4169 -2.26031 -2.65027e-06 -55.4152 -21.2396 5.09724 -69.002 -0 -0 32.6479 4.93112e-06 10.2718 -5.99442 -1.08421 5.3363e-06 -29.4148 
